<svg xmlns="http://www.w3.org/2000/svg" viewBox="0 0 1600 1000" width="1600" height="1000" font-family="Inter, Helvetica, Arial, sans-serif">
  <rect width="1600" height="1000" fill="#fafaf7"></rect>
  <text x="60" y="60" font-size="22" font-weight="700" fill="#111827">QlikView Data Model — Sales &amp; Incentives Star Schema</text>
  <text x="60" y="86" font-size="13" fill="#6b7280">Restructured from legacy synthetic keys to conformed fact + 7 dimensions · reduced load time ~50%</text>
  
  <g>
    <rect x="640" y="420" width="320" height="200" fill="#1f2937" stroke="#111827"></rect>
    <text x="800" y="450" font-size="15" font-weight="700" fill="#fff" text-anchor="middle">FACT_SALES_INCENTIVES</text>
    <line x1="660" y1="464" x2="940" y2="464" stroke="#374151"></line>
    <g font-size="12" fill="#d1d5db">
      <text x="660" y="488">PK  sale_id</text>
      <text x="660" y="508">FK  date_key</text>
      <text x="660" y="528">FK  hcp_key</text>
      <text x="660" y="548">FK  product_key</text>
      <text x="660" y="568">FK  geo_key</text>
      <text x="660" y="588">FK  channel_key</text>
      <text x="660" y="608">FK  rep_key · plan_key</text>
    </g>
    <text x="800" y="620" font-size="11" fill="#9ca3af" text-anchor="middle">measures: trx, nrx, units, gross_$, net_$</text>
  </g>
  
  <line x1="190" y1="195" x2="800" y2="520" stroke="#c084fc" stroke-width="1.5"></line>
              <rect x="60" y="120" width="260" height="150" fill="#ffffff" stroke="#c084fc" stroke-width="1.5"></rect>
              <rect x="60" y="120" width="260" height="30" fill="#f3e8ff"></rect>
              <text x="190" y="140" font-size="13" font-weight="700" fill="#6b21a8" text-anchor="middle">DIM_DATE</text>
              <text x="74" y="170" font-size="11" fill="#374151">date_key (PK)</text><text x="74" y="188" font-size="11" fill="#374151">date</text><text x="74" y="206" font-size="11" fill="#374151">week</text><text x="74" y="224" font-size="11" fill="#374151">month</text><text x="74" y="242" font-size="11" fill="#374151">quarter</text><text x="74" y="260" font-size="11" fill="#374151">fiscal_yr</text><line x1="190" y1="395" x2="800" y2="520" stroke="#c084fc" stroke-width="1.5"></line>
              <rect x="60" y="320" width="260" height="150" fill="#ffffff" stroke="#c084fc" stroke-width="1.5"></rect>
              <rect x="60" y="320" width="260" height="30" fill="#f3e8ff"></rect>
              <text x="190" y="340" font-size="13" font-weight="700" fill="#6b21a8" text-anchor="middle">DIM_HCP</text>
              <text x="74" y="370" font-size="11" fill="#374151">hcp_key (PK)</text><text x="74" y="388" font-size="11" fill="#374151">npi</text><text x="74" y="406" font-size="11" fill="#374151">name</text><text x="74" y="424" font-size="11" fill="#374151">specialty</text><text x="74" y="442" font-size="11" fill="#374151">segment</text><line x1="190" y1="595" x2="800" y2="520" stroke="#c084fc" stroke-width="1.5"></line>
              <rect x="60" y="520" width="260" height="150" fill="#ffffff" stroke="#c084fc" stroke-width="1.5"></rect>
              <rect x="60" y="520" width="260" height="30" fill="#f3e8ff"></rect>
              <text x="190" y="540" font-size="13" font-weight="700" fill="#6b21a8" text-anchor="middle">DIM_GEO</text>
              <text x="74" y="570" font-size="11" fill="#374151">geo_key (PK)</text><text x="74" y="588" font-size="11" fill="#374151">region</text><text x="74" y="606" font-size="11" fill="#374151">state</text><text x="74" y="624" font-size="11" fill="#374151">territory</text><text x="74" y="642" font-size="11" fill="#374151">zip</text><line x1="190" y1="795" x2="800" y2="520" stroke="#c084fc" stroke-width="1.5"></line>
              <rect x="60" y="720" width="260" height="150" fill="#ffffff" stroke="#c084fc" stroke-width="1.5"></rect>
              <rect x="60" y="720" width="260" height="30" fill="#f3e8ff"></rect>
              <text x="190" y="740" font-size="13" font-weight="700" fill="#6b21a8" text-anchor="middle">DIM_REP</text>
              <text x="74" y="770" font-size="11" fill="#374151">rep_key (PK)</text><text x="74" y="788" font-size="11" fill="#374151">rep_id</text><text x="74" y="806" font-size="11" fill="#374151">name</text><text x="74" y="824" font-size="11" fill="#374151">tier</text><text x="74" y="842" font-size="11" fill="#374151">mgr_id</text><line x1="1410" y1="195" x2="800" y2="520" stroke="#c084fc" stroke-width="1.5"></line>
              <rect x="1280" y="120" width="260" height="150" fill="#ffffff" stroke="#c084fc" stroke-width="1.5"></rect>
              <rect x="1280" y="120" width="260" height="30" fill="#f3e8ff"></rect>
              <text x="1410" y="140" font-size="13" font-weight="700" fill="#6b21a8" text-anchor="middle">DIM_PRODUCT</text>
              <text x="1294" y="170" font-size="11" fill="#374151">product_key (PK)</text><text x="1294" y="188" font-size="11" fill="#374151">brand</text><text x="1294" y="206" font-size="11" fill="#374151">molecule</text><text x="1294" y="224" font-size="11" fill="#374151">form</text><text x="1294" y="242" font-size="11" fill="#374151">dosage</text><line x1="1410" y1="395" x2="800" y2="520" stroke="#c084fc" stroke-width="1.5"></line>
              <rect x="1280" y="320" width="260" height="150" fill="#ffffff" stroke="#c084fc" stroke-width="1.5"></rect>
              <rect x="1280" y="320" width="260" height="30" fill="#f3e8ff"></rect>
              <text x="1410" y="340" font-size="13" font-weight="700" fill="#6b21a8" text-anchor="middle">DIM_CHANNEL</text>
              <text x="1294" y="370" font-size="11" fill="#374151">channel_key (PK)</text><text x="1294" y="388" font-size="11" fill="#374151">channel</text><text x="1294" y="406" font-size="11" fill="#374151">sub_channel</text><text x="1294" y="424" font-size="11" fill="#374151">source_sys</text><line x1="1410" y1="595" x2="800" y2="520" stroke="#c084fc" stroke-width="1.5"></line>
              <rect x="1280" y="520" width="260" height="150" fill="#ffffff" stroke="#c084fc" stroke-width="1.5"></rect>
              <rect x="1280" y="520" width="260" height="30" fill="#f3e8ff"></rect>
              <text x="1410" y="540" font-size="13" font-weight="700" fill="#6b21a8" text-anchor="middle">DIM_PLAN</text>
              <text x="1294" y="570" font-size="11" fill="#374151">plan_key (PK)</text><text x="1294" y="588" font-size="11" fill="#374151">plan_id</text><text x="1294" y="606" font-size="11" fill="#374151">quota</text><text x="1294" y="624" font-size="11" fill="#374151">payout_curve</text><line x1="1410" y1="795" x2="800" y2="520" stroke="#c084fc" stroke-width="1.5"></line>
              <rect x="1280" y="720" width="260" height="150" fill="#ffffff" stroke="#c084fc" stroke-width="1.5"></rect>
              <rect x="1280" y="720" width="260" height="30" fill="#f3e8ff"></rect>
              <text x="1410" y="740" font-size="13" font-weight="700" fill="#6b21a8" text-anchor="middle">BRIDGE_TEAM</text>
              <text x="1294" y="770" font-size="11" fill="#374151">rep_key</text><text x="1294" y="788" font-size="11" fill="#374151">team_id</text><text x="1294" y="806" font-size="11" fill="#374151">role</text><text x="1294" y="824" font-size="11" fill="#374151">effective_dt</text>
  
  <g transform="translate(60, 900)">
    <rect width="1480" height="64" fill="#111827"></rect>
    <text x="24" y="28" font-size="12" fill="#9ca3af">BEFORE</text>
    <text x="24" y="50" font-size="14" fill="#fca5a5">Synthetic keys across 12 loosely-joined tables · ~6 min reload · recurring circular-reference defects</text>
    <text x="780" y="28" font-size="12" fill="#9ca3af">AFTER</text>
    <text x="780" y="50" font-size="14" fill="#86efac">1 conformed fact + 7 dimensions · ~3 min reload · 50% faster SQL validation on Athena intermediate tables</text>
  </g>
</svg>