<svg xmlns="http://www.w3.org/2000/svg" viewBox="0 0 800 500" font-family="-apple-system, system-ui, sans-serif">
  <rect width="800" height="500" fill="#f4f4f3"></rect>
  <rect x="0" y="0" width="800" height="48" fill="#1f2937"></rect>
  <text x="20" y="30" fill="#fff" font-size="13" font-weight="600">US Pharma — Commercial KPI Dashboard</text>
  <text x="20" y="44" fill="#9ca3af" font-size="10">Brand A · National · YTD 2024</text>
  <circle cx="770" cy="24" r="4" fill="#10b981"></circle>
  <text x="745" y="28" fill="#fff" font-size="9" text-anchor="end">LIVE</text>

  
  <g transform="translate(20,68)">
    <rect width="180" height="78" fill="#fff" stroke="#e5e7eb"></rect>
    <text x="14" y="22" fill="#6b7280" font-size="9" letter-spacing="1">REVENUE YTD</text>
    <text x="14" y="48" fill="#111827" font-size="22" font-weight="600">$1.84B</text>
    <text x="14" y="66" fill="#10b981" font-size="10">▲ 12.4% vs PY</text>
  </g>
  <g transform="translate(210,68)">
    <rect width="180" height="78" fill="#fff" stroke="#e5e7eb"></rect>
    <text x="14" y="22" fill="#6b7280" font-size="9" letter-spacing="1">SCRIPTS (TRx)</text>
    <text x="14" y="48" fill="#111827" font-size="22" font-weight="600">2.41M</text>
    <text x="14" y="66" fill="#10b981" font-size="10">▲ 6.1% vs PY</text>
  </g>
  <g transform="translate(400,68)">
    <rect width="180" height="78" fill="#fff" stroke="#e5e7eb"></rect>
    <text x="14" y="22" fill="#6b7280" font-size="9" letter-spacing="1">MARKET SHARE</text>
    <text x="14" y="48" fill="#111827" font-size="22" font-weight="600">23.7%</text>
    <text x="14" y="66" fill="#ef4444" font-size="10">▼ 0.4 pts</text>
  </g>
  <g transform="translate(590,68)">
    <rect width="190" height="78" fill="#fff" stroke="#e5e7eb"></rect>
    <text x="14" y="22" fill="#6b7280" font-size="9" letter-spacing="1">CALL ATTAINMENT</text>
    <text x="14" y="48" fill="#111827" font-size="22" font-weight="600">94%</text>
    <text x="14" y="66" fill="#10b981" font-size="10">on target</text>
  </g>

  
  <g transform="translate(20,160)">
    <rect width="500" height="220" fill="#fff" stroke="#e5e7eb"></rect>
    <text x="14" y="22" fill="#111827" font-size="11" font-weight="600">Revenue trend — last 12 mo</text>
    <text x="14" y="36" fill="#6b7280" font-size="9">$ in millions</text>
    <g transform="translate(20,60)">
      <line x1="0" y1="140" x2="460" y2="140" stroke="#e5e7eb"></line>
      <line x1="0" y1="100" x2="460" y2="100" stroke="#f3f4f6"></line>
      <line x1="0" y1="60" x2="460" y2="60" stroke="#f3f4f6"></line>
      <line x1="0" y1="20" x2="460" y2="20" stroke="#f3f4f6"></line>
      <polyline fill="none" stroke="#2563eb" stroke-width="2" points="0,90 40,82 80,75 120,68 160,72 200,58 240,52 280,40 320,42 360,32 400,28 440,18"></polyline>
      <polyline fill="none" stroke="#94a3b8" stroke-width="1.5" stroke-dasharray="3,3" points="0,110 40,108 80,100 120,98 160,92 200,90 240,82 280,78 320,72 360,68 400,62 440,58"></polyline>
      <text x="0" y="155" fill="#9ca3af" font-size="8">M</text><text x="40" y="155" fill="#9ca3af" font-size="8">A</text><text x="80" y="155" fill="#9ca3af" font-size="8">M</text><text x="120" y="155" fill="#9ca3af" font-size="8">J</text><text x="160" y="155" fill="#9ca3af" font-size="8">J</text><text x="200" y="155" fill="#9ca3af" font-size="8">A</text><text x="240" y="155" fill="#9ca3af" font-size="8">S</text><text x="280" y="155" fill="#9ca3af" font-size="8">O</text><text x="320" y="155" fill="#9ca3af" font-size="8">N</text><text x="360" y="155" fill="#9ca3af" font-size="8">D</text><text x="400" y="155" fill="#9ca3af" font-size="8">J</text><text x="440" y="155" fill="#9ca3af" font-size="8">F</text>
    </g>
    <g transform="translate(20,30)" font-size="9">
      <rect x="320" width="8" height="8" fill="#2563eb"></rect><text x="332" y="8" fill="#374151">Brand A</text>
      <rect x="380" width="8" height="8" fill="#94a3b8"></rect><text x="392" y="8" fill="#374151">Market</text>
    </g>
  </g>

  
  <g transform="translate(530,160)">
    <rect width="250" height="220" fill="#fff" stroke="#e5e7eb"></rect>
    <text x="14" y="22" fill="#111827" font-size="11" font-weight="600">Region performance</text>
    <g transform="translate(14,42)" font-size="9">
      <g transform="translate(0,0)">
          <text x="0" y="14" fill="#374151">Northeast</text>
          <rect x="80" y="4" width="110" height="14" fill="#1e40af"></rect>
          <text x="195" y="14" fill="#374151">$220M</text>
        </g><g transform="translate(0,32)">
          <text x="0" y="14" fill="#374151">Southeast</text>
          <rect x="80" y="4" width="85" height="14" fill="#3b82f6"></rect>
          <text x="170" y="14" fill="#374151">$170M</text>
        </g><g transform="translate(0,64)">
          <text x="0" y="14" fill="#374151">Midwest</text>
          <rect x="80" y="4" width="140" height="14" fill="#1e3a8a"></rect>
          <text x="225" y="14" fill="#374151">$280M</text>
        </g><g transform="translate(0,96)">
          <text x="0" y="14" fill="#374151">West</text>
          <rect x="80" y="4" width="70" height="14" fill="#60a5fa"></rect>
          <text x="155" y="14" fill="#374151">$140M</text>
        </g><g transform="translate(0,128)">
          <text x="0" y="14" fill="#374151">Southwest</text>
          <rect x="80" y="4" width="95" height="14" fill="#2563eb"></rect>
          <text x="180" y="14" fill="#374151">$190M</text>
        </g>
    </g>
  </g>

  
  <g transform="translate(20,395)">
    <rect width="760" height="90" fill="#fff" stroke="#e5e7eb"></rect>
    <text x="14" y="20" fill="#111827" font-size="11" font-weight="600">Top 10 territories — sales rep attainment %</text>
    <rect x="30" y="25" width="50" height="50" fill="#3b82f6"></rect>
              <text x="55" y="85" fill="#9ca3af" font-size="8" text-anchor="middle">T01</text><rect x="102" y="28" width="50" height="47" fill="#3b82f6"></rect>
              <text x="127" y="85" fill="#9ca3af" font-size="8" text-anchor="middle">T02</text><rect x="174" y="31" width="50" height="44" fill="#3b82f6"></rect>
              <text x="199" y="85" fill="#9ca3af" font-size="8" text-anchor="middle">T03</text><rect x="246" y="34" width="50" height="41" fill="#3b82f6"></rect>
              <text x="271" y="85" fill="#9ca3af" font-size="8" text-anchor="middle">T04</text><rect x="318" y="37" width="50" height="38" fill="#3b82f6"></rect>
              <text x="343" y="85" fill="#9ca3af" font-size="8" text-anchor="middle">T05</text><rect x="390" y="40" width="50" height="35" fill="#3b82f6"></rect>
              <text x="415" y="85" fill="#9ca3af" font-size="8" text-anchor="middle">T06</text><rect x="462" y="43" width="50" height="32" fill="#3b82f6"></rect>
              <text x="487" y="85" fill="#9ca3af" font-size="8" text-anchor="middle">T07</text><rect x="534" y="46" width="50" height="29" fill="#3b82f6"></rect>
              <text x="559" y="85" fill="#9ca3af" font-size="8" text-anchor="middle">T08</text><rect x="606" y="49" width="50" height="26" fill="#3b82f6"></rect>
              <text x="631" y="85" fill="#9ca3af" font-size="8" text-anchor="middle">T09</text><rect x="678" y="52" width="50" height="23" fill="#3b82f6"></rect>
              <text x="703" y="85" fill="#9ca3af" font-size="8" text-anchor="middle">T10</text>
  </g>
</svg>